# 3ds Max Wavefront OBJ Exporter v0.97b - (c)2007 guruware
# File Created: 12.11.2019 19:06:08

mtllib test2.mtl

#
# object Box002
#

v  0.500000 -0.350000 0.500000
v  -0.500000 -0.350000 0.500000
v  -0.500000 -0.350000 -0.500000
v  0.500000 -0.350000 -0.500000
v  0.500000 0.000000 0.500000
v  0.500000 0.000000 -0.500000
v  -0.500000 0.000000 -0.500000
v  -0.500000 0.000000 0.500000
v  2.000000 0.000000 1.000000
v  -2.000000 0.000000 1.000000
v  -2.000000 0.000000 -1.000000
v  2.000000 0.000000 -1.000000
v  2.000000 0.350000 1.000000
v  2.000000 0.350000 -1.000000
v  -2.000000 0.350000 -1.000000
v  -2.000000 0.350000 1.000000
v  1.900000 0.350000 1.000000
v  1.900000 0.350000 -1.000000
v  2.000000 0.550000 1.000000
v  2.000000 0.550000 -1.000000
v  1.900000 0.550000 -1.000000
v  1.900000 0.550000 1.000000
v  1.900000 0.350000 -0.900000
v  -1.900000 0.350000 -0.900000
v  -1.900000 0.350000 -1.000000
v  1.900000 0.550000 -0.900000
v  -1.900000 0.550000 -1.000000
v  -1.900000 0.550000 -0.900000
v  -1.900000 0.350000 1.000000
v  -1.900000 0.550000 1.000000
v  -2.000000 0.550000 -1.000000
v  -2.000000 0.550000 1.000000
v  2.000000 -0.003000 1.200000
v  -2.000000 -0.003000 1.200000
v  -2.000000 -0.003000 1.000000
v  2.000000 -0.003000 1.000000
v  2.000000 0.097000 1.200000
v  2.000000 0.097000 1.000000
v  -2.000000 0.097000 1.000000
v  -2.000000 0.097000 1.200000
v  1.500000 -0.200000 0.600000
v  -1.500000 -0.200000 0.600000
v  -1.500000 -0.200000 0.500000
v  1.500000 -0.200000 0.500000
v  1.500000 0.000000 0.600000
v  1.500000 0.000000 0.500000
v  -1.500000 0.000000 0.500000
v  -1.500000 0.000000 0.600000
v  1.600000 -0.200000 0.600000
v  1.500000 -0.200000 -0.600000
v  1.600000 -0.200000 -0.600000
v  1.600000 0.000000 0.600000
v  1.600000 0.000000 -0.600000
v  1.500000 0.000000 -0.600000
v  -1.600000 -0.200000 0.600000
v  -1.600000 -0.200000 -0.600000
v  -1.500000 -0.200000 -0.600000
v  -1.500000 0.000000 -0.600000
v  -1.600000 0.000000 -0.600000
v  -1.600000 0.000000 0.600000
v  1.500000 -0.200000 -0.500000
v  -1.500000 -0.200000 -0.500000
v  1.500000 0.000000 -0.500000
v  -1.500000 0.000000 -0.500000
# 64 vertices

vn 0.577350 -0.577350 0.577350
vn -0.577350 -0.577350 0.577350
vn -0.577350 -0.577350 -0.577350
vn 0.577350 -0.577350 -0.577350
vn 0.577350 0.577350 0.577350
vn 0.577350 0.577350 -0.577350
vn -0.577350 0.577350 -0.577350
vn -0.577350 0.577350 0.577350
# 8 vertex normals

vt 0.002183 -0.002173 0.000000
vt 1.002173 0.002183 0.000000
vt 0.997817 1.002173 0.000000
vt -0.002173 0.997817 0.000000
vt 0.000000 0.000000 0.000000
vt 1.000000 0.000000 0.000000
vt 1.000000 1.000000 0.000000
vt 0.000000 1.000000 0.000000
vt -0.001957 0.001965 0.000000
vt 0.998035 -0.001957 0.000000
vt 1.001957 0.998035 0.000000
vt 0.001965 1.001957 0.000000
vt 0.002168 1.002158 0.000000
vt -0.002158 0.002168 0.000000
vt 0.997832 -0.002158 0.000000
vt 1.002158 0.997832 0.000000
# 16 texture coords

o Box002
g Box002
usemtl Material__25
s 2
f -64/-16/-8 -63/-15/-7 -62/-14/-6 -61/-13/-5 
s 4
f -60/-12/-4 -59/-11/-3 -58/-10/-2 -57/-9/-1 
s 8
f -64/-12/-8 -61/-11/-5 -59/-10/-3 -60/-9/-4 
s 16
f -61/-12/-5 -62/-11/-6 -58/-10/-2 -59/-9/-3 
s 32
f -62/-12/-6 -63/-11/-7 -57/-10/-1 -58/-9/-2 
s 64
f -63/-12/-7 -64/-11/-8 -60/-10/-4 -57/-9/-1 
s 1
f -56/-8/-8 -55/-7/-7 -54/-6/-6 -53/-5/-5 
f -52/-4/-4 -51/-3/-3 -50/-2/-2 -49/-1/-1 
s 2
f -56/-12/-8 -53/-11/-5 -51/-10/-3 -52/-9/-4 
s 4
f -53/-12/-5 -54/-11/-6 -50/-10/-2 -51/-9/-3 
s 2
f -54/-12/-6 -55/-11/-7 -49/-10/-1 -50/-9/-2 
s 4
f -55/-12/-7 -56/-11/-8 -52/-10/-4 -49/-9/-1 
usemtl Material__27
s 1
f -52/-11/-8 -48/-10/-7 -47/-9/-6 -51/-12/-5 
f -46/-12/-4 -45/-11/-3 -44/-10/-2 -43/-9/-1 
s 2
f -52/-12/-8 -51/-11/-5 -45/-10/-3 -46/-9/-4 
s 4
f -51/-12/-5 -47/-11/-6 -44/-10/-2 -45/-9/-3 
s 2
f -47/-12/-6 -48/-11/-7 -43/-10/-1 -44/-9/-2 
s 4
f -48/-12/-7 -52/-11/-8 -46/-10/-4 -43/-9/-1 
s 1
f -42/-11/-8 -41/-10/-7 -40/-9/-6 -47/-12/-5 
f -39/-12/-4 -44/-11/-3 -38/-10/-2 -37/-9/-1 
s 2
f -42/-12/-8 -47/-11/-5 -44/-10/-3 -39/-9/-4 
s 4
f -47/-12/-5 -40/-11/-6 -38/-10/-2 -44/-9/-3 
s 2
f -40/-12/-6 -41/-11/-7 -37/-10/-1 -38/-9/-2 
s 4
f -41/-12/-7 -42/-11/-8 -39/-10/-4 -37/-9/-1 
s 1
f -36/-11/-8 -49/-10/-7 -50/-9/-6 -40/-12/-5 
f -35/-12/-4 -38/-11/-3 -34/-10/-2 -33/-9/-1 
s 2
f -36/-12/-8 -40/-11/-5 -38/-10/-3 -35/-9/-4 
s 4
f -40/-12/-5 -50/-11/-6 -34/-10/-2 -38/-9/-3 
s 2
f -50/-12/-6 -49/-11/-7 -33/-10/-1 -34/-9/-2 
s 4
f -49/-12/-7 -36/-11/-8 -35/-10/-4 -33/-9/-1 
s 1
f -32/-11/-8 -31/-10/-7 -30/-9/-6 -29/-12/-5 
f -28/-12/-4 -27/-11/-3 -26/-10/-2 -25/-9/-1 
s 2
f -32/-12/-8 -29/-11/-5 -27/-10/-3 -28/-9/-4 
s 4
f -29/-12/-5 -30/-11/-6 -26/-10/-2 -27/-9/-3 
s 2
f -30/-12/-6 -31/-11/-7 -25/-10/-1 -26/-9/-2 
s 4
f -31/-12/-7 -32/-11/-8 -28/-10/-4 -25/-9/-1 
s 1
f -24/-11/-8 -23/-10/-7 -22/-9/-6 -21/-12/-5 
f -20/-12/-4 -19/-11/-3 -18/-10/-2 -17/-9/-1 
s 2
f -24/-12/-8 -21/-11/-5 -19/-10/-3 -20/-9/-4 
s 4
f -21/-12/-5 -22/-11/-6 -18/-10/-2 -19/-9/-3 
s 2
f -22/-12/-6 -23/-11/-7 -17/-10/-1 -18/-9/-2 
s 4
f -23/-12/-7 -24/-11/-8 -20/-10/-4 -17/-9/-1 
s 1
f -16/-11/-8 -24/-10/-7 -15/-9/-6 -14/-12/-5 
f -13/-12/-4 -12/-11/-3 -11/-10/-2 -20/-9/-1 
s 2
f -16/-12/-8 -14/-11/-5 -12/-10/-3 -13/-9/-4 
s 4
f -14/-12/-5 -15/-11/-6 -11/-10/-2 -12/-9/-3 
s 2
f -15/-12/-6 -24/-11/-7 -20/-10/-1 -11/-9/-2 
s 4
f -24/-12/-7 -16/-11/-8 -13/-10/-4 -20/-9/-1 
s 1
f -23/-11/-8 -10/-10/-7 -9/-9/-6 -8/-12/-5 
f -17/-12/-4 -7/-11/-3 -6/-10/-2 -5/-9/-1 
s 2
f -23/-12/-8 -8/-11/-5 -7/-10/-3 -17/-9/-4 
s 4
f -8/-12/-5 -9/-11/-6 -6/-10/-2 -7/-9/-3 
s 2
f -9/-12/-6 -10/-11/-7 -5/-10/-1 -6/-9/-2 
s 4
f -10/-12/-7 -23/-11/-8 -17/-10/-4 -5/-9/-1 
s 1
f -4/-11/-8 -3/-10/-7 -8/-9/-6 -15/-12/-5 
f -2/-12/-4 -11/-11/-3 -7/-10/-2 -1/-9/-1 
s 2
f -4/-12/-8 -15/-11/-5 -11/-10/-3 -2/-9/-4 
s 4
f -15/-12/-5 -8/-11/-6 -7/-10/-2 -11/-9/-3 
s 2
f -8/-12/-6 -3/-11/-7 -1/-10/-1 -7/-9/-2 
s 4
f -3/-12/-7 -4/-11/-8 -2/-10/-4 -1/-9/-1 
# 60 polygons

